<svg id="visual" viewBox="0 0 1920 1080" width="1920" height="1080" xmlns="http://www.w3.org/2000/svg" xmlns:xlink="http://www.w3.org/1999/xlink" version="1.1"><path d="M0 131L320 185L640 120L960 141L1280 174L1600 271L1920 131L1920 0L1600 0L1280 0L960 0L640 0L320 0L0 0Z" fill="#00cc8e"></path><path d="M0 314L320 293L640 314L960 293L1280 260L1600 357L1920 293L1920 129L1600 269L1280 172L960 139L640 118L320 183L0 129Z" fill="#00b98a"></path><path d="M0 714L320 779L640 519L960 487L1280 487L1600 530L1920 627L1920 291L1600 355L1280 258L960 291L640 312L320 291L0 312Z" fill="#00a784"></path><path d="M0 930L320 930L640 1016L960 941L1280 897L1600 1005L1920 984L1920 625L1600 528L1280 485L960 485L640 517L320 777L0 712Z" fill="#00957c"></path><path d="M0 1081L320 1081L640 1081L960 1081L1280 1081L1600 1081L1920 1081L1920 982L1600 1003L1280 895L960 939L640 1014L320 928L0 928Z" fill="#038373"></path></svg>